<svg width="26" height="26" viewBox="0 0 26 26" fill="none" xmlns="http://www.w3.org/2000/svg">
<rect x="26" y="1.1365e-06" width="26" height="26" rx="13" transform="rotate(90 26 1.1365e-06)" fill="#317F00"/>
<path d="M6.73926 6.39391C6.73926 6.20247 6.77814 6.01701 6.84993 5.8525C6.91873 5.68499 7.02342 5.53543 7.14905 5.4098C7.27469 5.28417 7.42425 5.18247 7.59175 5.11068C7.75926 5.03889 7.94173 5 8.13316 5L17.6063 5C17.7978 5 17.9832 5.03889 18.1477 5.11068C18.3153 5.18247 18.4648 5.28417 18.5904 5.4098C18.7161 5.53543 18.8178 5.68499 18.8896 5.8525C18.9614 6.02001 19.0002 6.20247 19.0002 6.39391V19.6061C19.0002 19.7975 18.9614 19.983 18.8896 20.1475C18.8208 20.315 18.7161 20.4646 18.5904 20.5902C18.4648 20.7158 18.3153 20.8175 18.1477 20.8893C17.9802 20.9611 17.7978 21 17.6063 21H8.13316C7.94173 21 7.75627 20.9611 7.59175 20.8893C7.42425 20.8175 7.27469 20.7158 7.14905 20.5902C7.02342 20.4646 6.92172 20.315 6.84993 20.1475C6.77814 19.98 6.73926 19.7975 6.73926 19.6061V9.69621M14.7856 12.9058H14.3818M14.7856 15.6816H14.3818M14.7856 18.4575H14.3818M12.2102 12.9058H11.8094M12.2102 15.6816H11.8094M12.2102 18.4575H11.8094M17.05 8.90025V9.17844C17.05 9.94718 16.4249 10.5723 15.6561 10.5723L9.89806 10.5723C9.12931 10.5723 8.50415 9.94718 8.50415 9.17844V8.90025C8.50415 8.13151 9.12931 7.50635 9.89806 7.50635L15.6561 7.50635C16.4249 7.50635 17.05 8.13151 17.05 8.90025Z" stroke="white" stroke-linecap="round" stroke-linejoin="round"/>
</svg>
