<svg width="20" height="24" viewBox="0 0 20 24" fill="none" xmlns="http://www.w3.org/2000/svg">
<g clip-path="url(#clip0_1259_17585)">
<g filter="url(#filter0_d_1259_17585)">
<path d="M8 0C12.4183 0 16 3.58172 16 8C16 11.2424 14.0698 14.0317 11.2969 15.2881L8 21L4.70215 15.2881C1.92961 14.0315 0 11.2421 0 8C0 3.58172 3.58172 0 8 0Z" fill="#0053C0"/>
<path d="M8 0.5C12.1421 0.5 15.5 3.85786 15.5 8C15.5 11.0386 13.6918 13.6545 11.0908 14.833L10.9443 14.8994L10.8643 15.0381L7.99902 20L5.13477 15.0381L5.05469 14.8994L4.9082 14.833L4.66699 14.7178C2.1967 13.4899 0.5 10.9434 0.5 8C0.5 3.85786 3.85786 0.5 8 0.5Z" stroke="white"/>
</g>
</g>
<defs>
<filter id="filter0_d_1259_17585" x="0" y="0" width="20" height="25" filterUnits="userSpaceOnUse" color-interpolation-filters="sRGB">
<feFlood flood-opacity="0" result="BackgroundImageFix"/>
<feColorMatrix in="SourceAlpha" type="matrix" values="0 0 0 0 0 0 0 0 0 0 0 0 0 0 0 0 0 0 127 0" result="hardAlpha"/>
<feOffset dx="2" dy="2"/>
<feGaussianBlur stdDeviation="1"/>
<feComposite in2="hardAlpha" operator="out"/>
<feColorMatrix type="matrix" values="0 0 0 0 0 0 0 0 0 0 0 0 0 0 0 0 0 0 0.25 0"/>
<feBlend mode="normal" in2="BackgroundImageFix" result="effect1_dropShadow_1259_17585"/>
<feBlend mode="normal" in="SourceGraphic" in2="effect1_dropShadow_1259_17585" result="shape"/>
</filter>
<clipPath id="clip0_1259_17585">
<rect width="20" height="24" fill="white"/>
</clipPath>
</defs>
</svg>
